<svg xmlns="http://www.w3.org/2000/svg" xmlns:xlink="http://www.w3.org/1999/xlink" width="250" height="61" version="1.1" viewBox="0 0 250 61"><title>Walmart_logo</title><desc>Created with Sketch.</desc><g id="Logos" fill="none" fill-rule="evenodd" stroke="none" stroke-width="1"><g id="Artboard-Copy" fill-rule="nonzero" transform="translate(-447.000000, -59.000000)"><g id="Group-3" transform="translate(83.000000, 44.000000)"><g id="Walmart_logo" transform="translate(364.000000, 15.000000)"><g id="Group" transform="translate(125.000000, 31.000000) scale(-1, 1) rotate(-180.000000) translate(-125.000000, -31.000000)"><g id="Shape"><path fill="#007DC6" d="M0,12.3888735 C0,12.3888735 6.18433333,37.8675222 7.17133333,42.0030897 C8.32333333,46.8300411 10.3990333,48.6065924 16.3836667,47.4084843 L20.2453333,31.6118897 C21.2240667,27.6881276 21.8805333,24.8907546 22.5096667,20.8992951 L22.6203433,20.8992951 C23.06241,24.9299654 23.6918767,27.6998573 24.49731,31.6256303 C24.49731,31.6256303 26.0692767,38.7968519 26.8742767,42.5634357 C27.68141,46.3286789 29.9276433,48.7017708 35.78961,47.4098249 L44.9909433,12.3915546 L37.5619433,12.3915546 L34.4206767,27.5316195 C33.57611,31.9386465 32.80971,35.38216 32.2188433,39.4138357 L32.1140267,39.4138357 C31.5770267,35.4223762 30.8940267,32.1152627 30.03536,27.8215114 L26.7645267,12.3915546 L19.0241933,12.3915546 L15.5255267,27.4327546 C14.5343267,32.0033276 13.60726,35.6941708 13.0177267,39.5891114 L12.9109567,39.5891114 C12.3072233,35.9210573 11.50309,31.2824519 10.6323233,26.8579978 C10.6323233,26.8579978 8.55369,16.0998249 7.82439,12.3915546 L0.000723333333,12.39256 L0,12.3888735 Z M70.82,12.3888735 L70.82,47.4071438 L77.893,47.4071438 L77.893,39.9711654 L77.893,12.3871978 L70.82,12.3871978 L70.82,12.3888735 Z M170.436667,12.3888735 L170.436667,38.2224303 C170.436667,41.7842465 171.1034,44.2796627 172.529767,45.8041924 C173.775933,47.1375276 175.828567,48.0009027 178.2881,48.0009027 C180.379267,48.0009027 182.436767,47.6021589 183.406433,47.2390065 L183.31529,41.6817957 C182.593757,41.8603389 181.76369,42.0031869 180.628423,42.0031869 C178.219057,42.0031869 177.41099,40.4517123 177.41099,37.2536518 L177.41099,27.3698464 L183.57099,27.3698464 L183.57099,20.6698248 L177.41099,20.6698248 L177.41099,12.3889707 L170.436323,12.3888735 L170.436667,12.3888735 Z M55.0133333,20.5068519 C50.6176667,20.5068519 47.1283333,21.7477232 45.2263333,22.8527978 L46.6182667,27.6448951 C48.3589667,26.5415632 51.1306,25.6281859 53.7549333,25.6281859 C58.0999333,25.6169589 58.8102667,28.0982995 58.8102667,29.6896886 L58.8102667,30.0660454 C49.3426,30.0517586 43.3622667,33.3456108 43.3622667,40.0597751 C43.3622667,44.1591481 46.4066,48.0008022 51.7002667,48.0008022 C54.9589333,48.0008022 57.6842667,46.6941438 59.3176,44.6005211 L59.4777567,44.6005211 C59.4777567,44.6005211 60.5593567,49.1472995 66.51809,47.4085849 C66.20505,45.5162108 66.10339,43.4985632 66.10339,41.0684984 L66.10339,31.7135362 C66.10339,25.751147 63.57129,20.5069524 55.01339,20.5069524 L55.0133333,20.5068519 Z M97.3233333,20.5068519 C92.8973333,20.5068519 90.9083333,22.7619762 89.7023333,24.6752627 L89.5975167,24.6752627 L89.5975167,21.1007114 L82.8475167,21.1007114 L82.8475167,47.4088195 L89.9581833,47.4088195 L89.9581833,31.9802032 C89.9581833,31.2569146 90.0403933,30.4920692 90.2915167,29.8266919 C90.88065,28.273307 92.3181167,26.4562378 94.6131833,26.4562378 C97.48225,26.4562378 98.82485,28.8950162 98.82485,32.4146054 L98.82485,47.4085514 L105.92785,47.4085514 L105.92785,31.7932649 C105.92785,31.1028195 106.021993,30.2711816 106.224077,29.6606995 C106.808043,27.893733 108.35771,26.4559697 110.491077,26.4559697 C113.399743,26.4559697 114.795743,28.85232 114.795743,32.9937859 L114.795743,47.4086184 L121.903743,47.4088195 L121.903743,31.9139805 C121.903743,23.7423805 117.776743,20.5069859 113.118077,20.5069859 C111.054877,20.5069859 109.42641,21.0271157 107.954077,21.9359016 C106.716477,22.6994065 105.608677,23.7842054 104.640277,25.2126184 L104.53546,25.2126184 C103.408793,22.3773751 100.76546,20.5069859 97.3221267,20.5069859 L97.3233333,20.5068519 Z M136.37,20.5068519 C131.975333,20.5068519 128.486667,21.7477232 126.583,22.8527978 L127.976867,27.6448951 C129.715867,26.5415632 132.4892,25.6281859 135.1122,25.6281859 C139.4542,25.6169589 140.1662,28.0982995 140.1662,29.6896886 L140.1662,30.0660454 C130.699867,30.0517586 124.718867,33.3456108 124.718867,40.0597751 C124.718867,44.1591481 127.764767,48.0008022 133.0612,48.0008022 C136.317267,48.0008022 139.043533,46.6941438 140.673867,44.6005211 L140.834677,44.6005211 C140.834677,44.6005211 141.916077,49.1472995 147.875677,47.4085849 C147.562177,45.5162108 147.46161,43.4985632 147.46161,41.0684984 L147.46161,31.7135362 C147.46161,25.751147 144.928843,20.5069524 136.369943,20.5069524 L136.37,20.5068519 Z M165.898667,20.5068519 C163.1758,20.5068519 160.078,22.2739524 158.777667,26.0620519 L158.5791,26.0620519 L158.5791,21.1003762 L152.1781,21.1003762 L152.1781,47.4084843 L159.4751,47.4084843 L159.4751,33.9370573 C159.4751,33.2103168 159.518927,32.5766768 159.633303,31.9956195 C160.17297,29.1737146 162.319803,27.3697492 165.40097,27.3697492 C166.246803,27.3697492 166.85217,27.4618577 167.507103,27.5569523 L167.507103,20.6695902 C166.957937,20.5580304 166.582337,20.5066039 165.899037,20.5066039 L165.898667,20.5068519 Z M59.0386667,34.7279762 L59.0386667,38.0099546 C59.0386667,38.4954314 58.9966367,38.9963243 58.8628867,39.4342789 C58.3154867,41.2570454 56.4373533,42.79736 54.0895533,42.79736 C52.1321533,42.79736 50.57722,41.6804551 50.57722,39.3176519 C50.57722,35.7035546 54.53422,34.7045168 59.0388867,34.7279762 L59.0386667,34.7279762 Z M140.395333,34.7279762 L140.395333,38.0099546 C140.395333,38.4954314 140.352427,38.9963243 140.219553,39.4342789 C139.672153,41.2570454 137.794687,42.79736 135.446887,42.79736 C133.489053,42.79736 131.933887,41.6804551 131.933887,39.3176519 C131.933887,35.7035546 135.890887,34.7045168 140.395553,34.7279762 L140.395333,34.7279762 Z" transform="translate(0.750000, 0.888108) translate(91.785495, 30.194050) scale(-1, 1) rotate(-180.000000) translate(-91.785495, -30.194050)"/><path fill="#FFC220" d="M221.813333,0.317875676 C219.529933,0.317875676 217.715,1.59990162 217.715,3.16062595 L219.101733,18.9478368 C219.254817,19.8989838 220.413667,20.6326616 221.814633,20.6326616 C223.218367,20.6308184 224.373167,19.8977773 224.529467,18.9478368 L225.9228,3.16062595 C225.9228,1.60003568 224.1028,0.31800973 221.816133,0.31800973 L221.813333,0.317875676 Z M199.215,12.981627 C198.029567,13.0099057 196.682933,13.9122638 195.826333,15.4054584 C194.680733,17.3937816 194.883733,19.6157611 196.224133,20.3952854 L210.514467,27.0862584 C211.4072,27.4200932 212.619667,26.7826863 213.321767,25.5657168 C213.321867,25.5655482 213.32167,25.5652141 213.321767,25.5650465 C214.027133,24.3420714 213.972533,22.9669784 213.22997,22.3570324 L200.323303,13.2554324 C199.988103,13.0602363 199.611037,12.9724008 199.21587,12.9818248 L199.215,12.981627 Z M244.411667,12.981627 C244.0166,12.9721997 243.6401,13.0600386 243.305533,13.2552347 L230.3972,22.3568347 C229.659033,22.9667471 229.6043,24.3419071 230.306057,25.5648488 L230.306723,25.565519 C231.011423,26.7824952 232.219957,27.4198888 233.112723,27.0860606 L247.40939,20.3954228 C248.755357,19.6158985 248.948257,17.3940196 247.810423,15.4055958 C246.949957,13.9123677 245.60109,13.0100498 244.415757,12.9817644 L244.411667,12.981627 Z M211.048333,33.8106108 C210.863463,33.8080973 210.684233,33.8368117 210.516433,33.9002863 L196.2261,40.583216 C194.885733,41.3661587 194.682733,43.588976 195.8283,45.5794106 C196.970433,47.5638128 198.9836,48.5072182 200.3243,47.7290009 L213.231967,38.6344387 C213.974633,38.0170528 214.029433,36.6423284 213.323763,35.4205598 L213.32963,35.4232409 C212.759097,34.4280571 211.849497,33.8213619 211.048363,33.810403 L211.048333,33.8106108 Z M232.584667,33.8106108 C231.784467,33.8215697 230.876667,34.4282649 230.304733,35.4234486 L230.309933,35.4207676 C229.607733,36.6425362 229.6621,38.0172605 230.400427,38.6346465 L243.30876,47.7292086 C244.64696,48.5074259 246.662093,47.5640507 247.809427,45.5796184 C248.94726,43.5891168 248.75436,41.3662995 247.408393,40.5834238 L233.11606,33.9004941 C232.94827,33.8370195 232.76946,33.8082883 232.584793,33.8108186 L232.584667,33.8106108 Z M221.811333,40.3534541 C220.412733,40.3551297 219.256533,41.0856908 219.103667,42.0343578 L217.716933,57.8208984 C217.716933,59.3842368 219.531833,60.6636486 221.815267,60.6636486 C224.102933,60.6636486 225.921267,59.3842032 225.921267,57.8208984 L224.5313,42.0343578 C224.374997,41.0856908 223.2202,40.3552638 221.816467,40.3534541 L221.811267,40.3534541 L221.811333,40.3534541 Z" transform="translate(0.750000, 0.888108) translate(221.817013, 30.490762) scale(-1, 1) rotate(-180.000000) translate(-221.817013, -30.490762)"/></g></g></g></g></g></g></svg>