<svg xmlns="http://www.w3.org/2000/svg" viewBox="0 0 390 90" width="500" height="120">
  <style>
    text {
     text-transform: uppercase;
      font-size: 48px;
      font-weight: bold;
    }
  </style>
  <rect width="100%" fill="transparent"/>

  <text y="60" font-family="sans-serif" font-weight="bold" fill="#ff2056">
    QUERY
  </text>

  <g transform="translate(175, 10) scale(3)" fill="none" stroke="#ff2056" stroke-width="2"
     stroke-linecap="round" stroke-linejoin="round">
    <path d="M19.5 12.572l-7.5 7.428l-7.5 -7.428a5 5 0 1 1 7.5 -6.566a5 5 0 1 1 7.5 6.572"></path>
    <path d="M12 6l-3.293 3.293a1 1 0 0 0 0 1.414l.543 .543c.69 .69 1.81 .69 2.5 0l1 -1a3.182 3.182 0 0 1 4.5 0l2.25 2.25"></path>
    <path d="M12.5 15.5l2 2"></path>
    <path d="M15 13l2 2"></path>
  </g>

  <text x="250" y="60" font-family="sans-serif" fill="#ff2d55">
    YOU?
  </text>
</svg>