<svg xmlns="http://www.w3.org/2000/svg" width="90.714" height="127" fill="none" viewBox="0 0 60 84"><path fill="#fff" d="M38.8688 0L48.5628 5.57462L10.3866 27.5283L0.692639 21.9536L38.8688 0Z"/><path fill="#fff" d="M48.9537 6.74507L11.0179 28.5506L11.0166 39.5831L48.9525 17.7776L48.9537 6.74507Z"/><path fill="#fff" d="M33.6985 28.2757L11.0976 41.2669L11.0964 52.2997L33.6972 39.3084L33.6985 28.2757Z"/><path fill="#fff" d="M25.0346 45.7171L11.0441 53.7592L11.0428 64.7922L25.0334 56.7501L25.0346 45.7171Z"/><path fill="#fff" d="M0.00375833 23.0173L9.75474 28.622L9.75099 39.6571L0 34.0525L0.00375833 23.0173Z"/><path fill="#fff" d="M0.0965426 35.6574L9.72924 41.1941L9.72548 52.2292L0.0927843 46.6926L0.0965426 35.6574Z"/><path fill="#fff" d="M0.0922985 48.2214L9.72824 53.76L9.72423 65.523L0.0882924 59.9844L0.0922985 48.2214Z"/><path fill="#fff" d="M21.5645 84L11.8705 78.4254L49.6134 56.7209L59.3073 62.2955L21.5645 84Z"/><path fill="#fff" d="M11.102 77.4713L48.9809 55.6985L48.9821 44.666L11.1032 66.4388L11.102 77.4713Z"/><path fill="#fff" d="M26.3002 55.9735L48.901 42.9822L48.9023 31.9495L26.3014 44.9407L26.3002 55.9735Z"/><path fill="#fff" d="M34.9641 38.532L48.9546 30.4899L48.9558 19.457L34.9653 27.4991L34.9641 38.532Z"/><path fill="#fff" d="M59.9962 61.3058L50.2453 55.7012L50.249 44.666L60 50.2706L59.9962 61.3058Z"/><path fill="#fff" d="M59.9041 48.5947L50.2714 43.058L50.2751 32.0229L59.9078 37.5595L59.9041 48.5947Z"/><path fill="#fff" d="M59.9077 36.0307L50.2717 30.4921L50.2756 18.9405L59.9116 24.479L59.9077 36.0307Z"/></svg>