<?xml version="1.0" encoding="UTF-8"?>
<svg width="2552px" height="498px" viewBox="0 0 2552 498" version="1.1" xmlns="http://www.w3.org/2000/svg" xmlns:xlink="http://www.w3.org/1999/xlink">
    <!-- Generator: Sketch 60.1 (88133) - https://sketch.com -->
    <title>logo</title>
    <desc>Created with Sketch.</desc>
    <g id="Page-1" stroke="none" stroke-width="1" fill="none" fill-rule="evenodd">
        <g id="logo">
            <path d="M343.113,309.464 L332.448134,327.983049 C329.235311,333.561819 323.287674,337 316.849903,337 L235.150097,337 C228.712326,337 222.764689,333.561819 219.551866,327.983049 L208.886,309.464 L343.113,309.464 Z M372.97,257.621 L354.165,290.273 L197.834,290.273 L179.03,257.621 L372.97,257.621 Z M354.856,206.925 L373,238.431 L179,238.431 L197.144,206.925 L354.856,206.925 Z M316.849903,159 C323.287674,159 329.235311,162.438181 332.448134,168.016951 L343.804,187.734 L208.196,187.734 L219.551866,168.016951 C222.764689,162.438181 228.712326,159 235.150097,159 L316.849903,159 Z" id="Polygon-2-Copy-6" fill="#00435B"></path>
            <g id="Group-Copy-3" transform="translate(193.000000, 289.000000)"></g>
            <path d="M116.244884,150.406615 C107.194529,106.52184 105.252296,72.8625915 111.102358,48.4212873 C114.58164,33.8849974 120.942609,22.026495 130.614954,13.4707918 C140.826429,4.43819877 153.737022,0.00589446291 168.243426,0.00589446291 C192.174673,0.00589446291 217.332382,10.9188593 244.217805,31.6506139 C255.183868,40.1067105 266.565236,50.2992041 278.385254,62.2338139 C279.326032,61.022654 280.389459,59.8802387 281.57429,58.8243904 C314.9915,29.0450344 343.125875,10.5427396 367.189448,3.40881198 C381.497642,-0.83301926 394.931267,-1.23714325 407.164466,2.87970264 C420.077405,7.22530165 430.366414,16.2082855 437.625592,28.7905785 C449.605854,49.5559023 452.765191,76.841688 448.298688,110.532636 C446.478098,124.265387 443.365665,139.224346 438.968129,155.432583 C440.627205,155.632935 442.290437,156.000787 443.936857,156.546387 C486.335926,170.596836 516.358902,185.706386 534.535535,202.973914 C545.350168,213.247652 552.412256,224.685424 554.965152,237.346274 C557.659737,250.709823 555.032307,264.113807 547.781582,276.68674 C535.823671,297.422046 513.836599,313.775769 482.513149,326.729103 C469.93574,331.930298 455.705146,336.640849 439.805538,340.877334 C440.531021,342.515377 441.093882,344.254975 441.470258,346.079998 C450.520613,389.964774 452.462846,423.624022 446.612784,448.065326 C443.133502,462.601616 436.772533,474.460118 427.100188,483.015822 C416.888713,492.048415 403.97812,496.480719 389.471716,496.480719 C365.540469,496.480719 340.38276,485.567754 313.497337,464.836 C302.414558,456.289901 290.907585,445.970246 278.952322,433.871131 C277.72222,435.79533 276.211928,437.583843 274.42571,439.17561 C241.0085,468.954966 212.874125,487.45726 188.810552,494.591188 C174.502358,498.833019 161.068733,499.237143 148.835534,495.120297 C135.922595,490.774698 125.633586,481.791714 118.374408,469.209422 C106.394146,448.444098 103.234809,421.158312 107.701312,387.467364 C109.587711,373.23821 112.861035,357.692597 117.513787,340.804862 C115.695126,340.620588 113.869021,340.235991 112.063143,339.637549 C69.6640738,325.5871 39.641098,310.47755 21.4644646,293.210022 C10.6498324,282.936284 3.58774368,271.498512 1.03484837,258.837662 C-1.65973706,245.474113 0.967693362,232.07013 8.21841848,219.497196 C20.1763288,198.76189 42.1634012,182.408167 73.4868514,169.454833 C86.4390207,164.098661 101.144362,159.262808 117.62016,154.929169 C117.03314,153.492145 116.569606,151.981174 116.244884,150.406615 Z" id="Combined-Shape-Copy-2" fill="#002B3B" fill-rule="nonzero"></path>
            <path d="M225.133723,136.425962 C247.112019,134.676747 269.765528,133.904301 293.094249,134.108623 L293.094249,134.108622 C297.512357,134.147317 301.12531,130.597102 301.164005,126.178995 C301.180303,124.318178 300.547388,122.50989 299.374208,121.0654 C246.276598,55.6884667 202.554909,23 168.209139,23 C132.750515,23 122.634738,62.0860572 137.861808,140.258172 L137.861806,140.258172 C138.696436,144.542964 142.811897,147.367623 147.110243,146.605863 C174.219491,141.801521 200.227318,138.40822 225.133723,136.425962 Z" id="Path-3-Copy-24" fill="#FF4154"></path>
            <path d="M348.510832,147.18674 C361.20348,165.476383 373.385335,184.845173 385.056394,205.29311 L385.0564,205.293107 C387.246571,209.130332 392.132742,210.465533 395.969967,208.275362 C397.57904,207.356952 398.81946,205.908524 399.47947,204.177345 C429.51487,125.395696 435.827221,71.0646203 418.416522,41.184118 C400.449906,10.3495405 361.302692,21.0113248 300.974882,73.1694709 L300.974878,73.1694669 C297.65796,76.0372042 297.267529,81.0405429 300.099442,84.3880992 C318.023814,105.576196 334.160944,126.509077 348.510832,147.18674 Z" id="Path-3-Copy-25" fill="#FF4154"></path>
            <path d="M401.782962,257.247764 C392.283402,277.212779 381.605954,297.278404 369.750618,317.444638 C367.511466,321.253493 368.783962,326.156372 372.592818,328.395524 C374.20542,329.343541 376.099249,329.696482 377.945086,329.392991 C460.717636,315.783608 510.700527,294.061918 527.893758,264.227921 C545.650759,233.415662 517.095163,205.174519 442.226969,179.504493 L442.226971,179.504488 C438.102558,178.090353 433.605291,180.239322 432.114465,184.336639 C422.667086,210.301371 412.556585,234.60508 401.782962,257.247764 Z" id="Path-3-Copy-26" fill="#FF4154"></path>
            <path d="M343.133723,462.425962 C365.112019,460.676747 387.765528,459.904301 411.094249,460.108623 L411.094249,460.108622 C415.512357,460.147317 419.12531,456.597102 419.164005,452.178995 C419.180303,450.318178 418.547388,448.50989 417.374208,447.0654 C364.276598,381.688467 320.554909,349 286.209139,349 C250.750515,349 240.634738,388.086057 255.861808,466.258172 L255.861806,466.258172 C256.696436,470.542964 260.811897,473.367623 265.110243,472.605863 C292.219491,467.801521 318.227318,464.40822 343.133723,462.425962 Z" id="Path-3-Copy-27" fill="#FF4154" transform="translate(338.500000, 411.500000) rotate(-180.000000) translate(-338.500000, -411.500000) "></path>
            <path d="M207.489168,350.81326 C194.79652,332.523617 182.614665,313.154827 170.943606,292.70689 L170.9436,292.706893 C168.753429,288.869668 163.867258,287.534467 160.030033,289.724638 C158.42096,290.643048 157.18054,292.091476 156.52053,293.822655 C126.48513,372.604304 120.172779,426.93538 137.583478,456.815882 C155.550094,487.65046 194.697308,476.988675 255.025118,424.830529 L255.025122,424.830533 C258.34204,421.962796 258.732471,416.959457 255.900558,413.611901 C237.976186,392.423804 221.839056,371.490923 207.489168,350.81326 Z" id="Path-3-Copy-28" fill="#FF4154"></path>
            <path d="M154.217038,237.752236 C163.716598,217.787221 174.394046,197.721596 186.249382,177.555362 C188.488534,173.746507 187.216038,168.843628 183.407182,166.604476 C181.79458,165.656459 179.900751,165.303518 178.054914,165.607009 C95.2823639,179.216392 45.2994732,200.938082 28.1062416,230.772079 C10.3492407,261.584338 38.904837,289.825481 113.773031,315.495507 L113.773029,315.495512 C117.897442,316.909647 122.394709,314.760678 123.885535,310.663361 C133.332914,284.698629 143.443415,260.39492 154.217038,237.752236 Z" id="Path-3-Copy-29" fill="#FF4154"></path>
            <g id="Emblem" transform="translate(175.000000, 160.000000)" fill="#FFD94C">
                <path d="M66.7177979,2.84217094e-14 L135.296803,2.84217094e-14 C145.32613,2.65793519e-14 154.58949,5.36419618 159.581661,14.0627957 L194.015968,74.0627957 C198.96949,82.6940525 198.96949,93.3059475 194.015968,101.937204 L159.581661,161.937204 C154.58949,170.635804 145.32613,176 135.296803,176 L66.7177979,176 C56.6884708,176 47.4251105,170.635804 42.4329397,161.937204 L7.99863284,101.937204 C3.04511039,93.3059475 3.04511039,82.6940525 7.99863284,74.0627957 L42.4329397,14.0627957 C47.4251105,5.36419618 56.6884708,3.73694943e-14 66.7177979,2.84217094e-14 Z M124.844708,18.1093248 C134.879332,18.1093248 144.14674,23.4791404 149.13694,32.1849766 L173.148745,74.0756519 C178.092436,82.7003489 178.092436,93.2996511 173.148745,101.924348 L149.13694,143.815023 C144.14674,152.52086 134.879332,157.890675 124.844708,157.890675 L77.1698923,157.890675 C67.1352682,157.890675 57.8678604,152.52086 52.8776604,143.815023 L28.8658549,101.924348 C23.9221641,93.2996511 23.9221641,82.7003489 28.8658549,74.0756519 L52.8776604,32.1849766 C57.8678604,23.4791404 67.1352682,18.1093248 77.1698923,18.1093248 L124.844708,18.1093248 Z M113.579035,37.9163987 L88.4355652,37.9163987 C78.4112416,37.9163987 69.151706,43.2752892 64.1576791,51.967053 L64.1576791,51.967053 L51.4691036,74.0506542 C46.5062851,82.6881019 46.5062851,93.3118981 51.4691036,101.949346 L51.4691036,101.949346 L64.1576791,124.032947 C69.151706,132.724711 78.4112416,138.083601 88.4355652,138.083601 L88.4355652,138.083601 L113.579035,138.083601 C123.603359,138.083601 132.862894,132.724711 137.856921,124.032947 L137.856921,124.032947 L150.545497,101.949346 C155.508315,93.3118981 155.508315,82.6881019 150.545497,74.0506542 L150.545497,74.0506542 L137.856921,51.967053 C132.862894,43.2752892 123.603359,37.9163987 113.579035,37.9163987 L113.579035,37.9163987 Z M102.731325,56.8745981 C112.74814,56.8745981 122.001934,62.2255316 126.998737,70.9070377 L128.79762,74.0324396 C133.774405,82.6791668 133.774405,93.3208332 128.79762,101.96756 L126.998737,105.092962 C122.001934,113.774468 112.74814,119.125402 102.731325,119.125402 L99.2832753,119.125402 C89.2664603,119.125402 80.0126664,113.774468 75.0158639,105.092962 L73.2169807,101.96756 C68.2401959,93.3208332 68.2401959,82.6791668 73.2169807,74.0324396 L75.0158639,70.9070377 C80.0126664,62.2255316 89.2664603,56.8745981 99.2832753,56.8745981 L102.731325,56.8745981 Z M101.011823,75.5498392 C96.5535807,75.5498392 92.442097,77.9226101 90.2160991,81.7749196 C87.9904765,85.6265797 87.9904765,90.3734203 90.2160991,94.2250804 C92.442097,98.0773899 96.5535807,100.450161 101.002778,100.450161 L101.002778,100.450161 C105.46102,100.450161 109.572503,98.0773899 111.798501,94.2250804 C114.024124,90.3734203 114.024124,85.6265797 111.798501,81.7749196 C109.572503,77.9226101 105.46102,75.5498392 101.011823,75.5498392 L101.011823,75.5498392 Z M-1.27897692e-13,88 L22.4155464,88" id="Polygon-2"></path>
            </g>
            <path d="M717.3065,379 L717.3065,287.363 L767.3915,287.363 L814.5085,379 L877.5785,379 L828.9775,278.83 C843.570167,272.894 855.071167,262.629667 863.4805,248.037 C871.889833,233.444333 876.0945,218.480667 876.0945,203.146 C876.0945,178.412667 869.107333,158.255 855.133,142.673 C841.158667,127.091 818.5895,119.3 787.4255,119.3 L787.4255,119.3 L660.9145,119.3 L660.9145,379 L717.3065,379 Z M788.1675,233.939 L717.3065,233.939 L717.3065,172.724 L788.1675,172.724 C798.5555,172.724 806.037333,175.630167 810.613,181.4425 C815.188667,187.254833 817.4765,194.489333 817.4765,203.146 C817.4765,223.674667 807.706833,233.939 788.1675,233.939 L788.1675,233.939 Z M961.9915,383.452 C992.166167,383.452 1016.77583,371.951 1035.8205,348.949 L1035.8205,348.949 L1004.6565,317.785 C993.5265,331.141 979.304833,337.819 961.9915,337.819 C951.356167,337.819 942.575833,334.912833 935.6505,329.1005 C928.725167,323.288167 925.015167,314.446 924.5205,302.574 L924.5205,302.574 L1045.8375,302.574 C1046.82683,296.143333 1047.3215,286.868333 1047.3215,274.749 C1047.3215,245.563667 1039.40683,223.303667 1023.5775,207.969 C1007.74817,192.634333 987.2195,184.967 961.9915,184.967 C934.290167,184.967 912.339333,193.871 896.139,211.679 C879.938667,229.487 871.8385,253.602 871.8385,284.024 C871.8385,315.188 879.876833,339.550333 895.9535,357.111 C912.030167,374.671667 934.042833,383.452 961.9915,383.452 Z M995.7525,262.135 L924.8915,262.135 C926.128167,252.241667 929.838167,244.5125 936.0215,238.9475 C942.204833,233.3825 950.1195,230.6 959.7655,230.6 C981.036167,230.6 993.031833,241.111667 995.7525,262.135 L995.7525,262.135 Z M1123.9435,383.452 C1143.9775,383.452 1159.68317,377.268667 1171.0605,364.902 L1171.0605,364.902 L1171.0605,379 L1224.4845,379 L1224.4845,259.167 C1224.4845,209.700333 1197.64883,184.967 1143.9775,184.967 C1113.06083,184.967 1085.97783,192.881667 1062.7285,208.711 L1062.7285,208.711 L1079.4235,249.892 C1099.4575,236.536 1119.73883,229.858 1140.2675,229.858 C1149.9135,229.858 1157.45717,232.145833 1162.8985,236.7215 C1168.33983,241.297167 1171.0605,247.913333 1171.0605,256.57 L1171.0605,256.57 L1171.0605,266.958 C1161.16717,262.506 1147.3165,260.28 1129.5085,260.28 C1108.97983,260.28 1091.04817,265.535833 1075.7135,276.0475 C1060.37883,286.559167 1052.7115,301.584667 1052.7115,321.124 C1052.7115,341.158 1059.32767,356.5545 1072.56,367.3135 C1085.79233,378.0725 1102.92017,383.452 1123.9435,383.452 Z M1134.3315,338.19 C1115.0395,338.19 1105.3935,332.625 1105.3935,321.495 C1105.3935,309.375667 1116.5235,303.316 1138.7835,303.316 C1150.40817,303.316 1161.16717,304.8 1171.0605,307.768 L1171.0605,307.768 L1171.0605,324.834 C1159.9305,333.738 1147.6875,338.19 1134.3315,338.19 Z M1327.8185,383.452 C1370.8545,383.452 1398.6795,362.057667 1411.2935,319.269 L1411.2935,319.269 L1359.7245,304.429 C1354.03583,322.731667 1343.4005,331.883 1327.8185,331.883 C1317.92517,331.883 1309.76317,327.492833 1303.3325,318.7125 C1296.90183,309.932167 1293.6865,298.493 1293.6865,284.395 C1293.6865,270.297 1296.96367,258.796 1303.518,249.892 C1310.07233,240.988 1318.41983,236.536 1328.5605,236.536 C1343.15317,236.536 1353.54117,244.698 1359.7245,261.022 L1359.7245,261.022 L1410.9225,244.327 C1398.55583,204.753667 1370.8545,184.967 1327.8185,184.967 C1301.1065,184.967 1279.65033,193.932833 1263.45,211.8645 C1247.24967,229.796167 1239.1495,253.973 1239.1495,284.395 C1239.1495,315.311667 1247.18783,339.550333 1263.2645,357.111 C1279.34117,374.671667 1300.85917,383.452 1327.8185,383.452 Z M1485.6895,383.452 C1502.7555,383.452 1517.10083,380.607667 1528.7255,374.919 L1528.7255,374.919 L1534.6615,329.657 C1523.77883,334.603667 1512.89617,337.077 1502.0135,337.077 C1499.0455,337.077 1496.51033,336.1495 1494.408,334.2945 C1492.30567,332.4395 1491.2545,329.780667 1491.2545,326.318 L1491.2545,326.318 L1491.2545,236.536 L1532.4355,236.536 L1532.4355,189.419 L1491.2545,189.419 L1491.2545,111.138 L1437.8305,136.737 L1437.8305,189.419 L1411.8605,189.419 L1411.8605,236.536 L1437.8305,236.536 L1437.8305,331.512 C1437.8305,366.138667 1453.7835,383.452 1485.6895,383.452 Z M1779.9135,409.051 L1821.4655,382.339 L1801.4315,353.03 C1825.9175,327.554667 1838.1605,292.928 1838.1605,249.15 C1838.1605,232.331333 1835.99633,216.254667 1831.668,200.92 C1827.33967,185.585333 1820.84717,171.301833 1812.1905,158.0695 C1803.53383,144.837167 1791.53817,134.3255 1776.2035,126.5345 C1760.86883,118.7435 1743.1845,114.848 1723.1505,114.848 C1706.8265,114.848 1692.04833,117.445 1678.816,122.639 C1665.58367,127.833 1654.63917,134.820167 1645.9825,143.6005 C1637.32583,152.380833 1630.09133,162.583333 1624.279,174.208 C1618.46667,185.832667 1614.262,197.890167 1611.665,210.3805 C1609.068,222.870833 1607.7695,235.794 1607.7695,249.15 C1607.7695,262.506 1609.068,275.429167 1611.665,287.9195 C1614.262,300.409833 1618.46667,312.467333 1624.279,324.092 C1630.09133,335.716667 1637.32583,345.919167 1645.9825,354.6995 C1654.63917,363.479833 1665.58367,370.467 1678.816,375.661 C1692.04833,380.855 1706.8265,383.452 1723.1505,383.452 C1735.51717,383.452 1747.51283,381.844333 1759.1375,378.629 L1759.1375,378.629 L1779.9135,409.051 Z M1723.1505,328.915 C1713.00983,328.915 1704.10583,326.5035 1696.4385,321.6805 C1688.77117,316.8575 1682.83517,310.426833 1678.6305,302.3885 C1674.42583,294.350167 1671.33417,285.879 1669.3555,276.975 C1667.37683,268.071 1666.3875,258.796 1666.3875,249.15 C1666.3875,236.288667 1667.99517,224.1075 1671.2105,212.6065 C1674.42583,201.1055 1680.54733,190.964833 1689.575,182.1845 C1698.60267,173.404167 1709.7945,169.014 1723.1505,169.014 C1736.5065,169.014 1747.6365,173.2805 1756.5405,181.8135 C1765.4445,190.3465 1771.50417,200.3635 1774.7195,211.8645 C1777.93483,223.3655 1779.5425,235.794 1779.5425,249.15 C1779.5425,270.915333 1775.58517,288.476 1767.6705,301.832 L1767.6705,301.832 L1746.8945,270.668 L1704.9715,297.751 L1726.1185,328.544 L1726.1185,328.544 L1724.2635,328.544 L1723.1505,328.915 Z M1919.6055,383.452 C1942.36017,383.452 1959.6735,376.155667 1971.5455,361.563 L1971.5455,361.563 L1971.5455,379 L2025.3405,379 L2025.3405,189.419 L1971.5455,189.419 L1971.5455,288.847 C1971.5455,303.439667 1968.88667,314.198667 1963.569,321.124 C1958.25133,328.049333 1949.90383,331.512 1938.5265,331.512 C1927.14917,331.512 1919.2345,328.049333 1914.7825,321.124 C1910.3305,314.198667 1908.1045,303.192333 1908.1045,288.105 L1908.1045,288.105 L1908.1045,189.419 L1854.3095,189.419 L1854.3095,312.591 C1854.3095,325.452333 1856.35,336.706 1860.431,346.352 C1864.512,355.998 1869.8915,363.418 1876.5695,368.612 C1883.2475,373.806 1890.17283,377.577833 1897.3455,379.9275 C1904.51817,382.277167 1911.93817,383.452 1919.6055,383.452 Z M2133.8685,383.452 C2164.04317,383.452 2188.65283,371.951 2207.6975,348.949 L2207.6975,348.949 L2176.5335,317.785 C2165.4035,331.141 2151.18183,337.819 2133.8685,337.819 C2123.23317,337.819 2114.45283,334.912833 2107.5275,329.1005 C2100.60217,323.288167 2096.89217,314.446 2096.3975,302.574 L2096.3975,302.574 L2217.7145,302.574 C2218.70383,296.143333 2219.1985,286.868333 2219.1985,274.749 C2219.1985,245.563667 2211.28383,223.303667 2195.4545,207.969 C2179.62517,192.634333 2159.0965,184.967 2133.8685,184.967 C2106.16717,184.967 2084.21633,193.871 2068.016,211.679 C2051.81567,229.487 2043.7155,253.602 2043.7155,284.024 C2043.7155,315.188 2051.75383,339.550333 2067.8305,357.111 C2083.90717,374.671667 2105.91983,383.452 2133.8685,383.452 Z M2167.6295,262.135 L2096.7685,262.135 C2098.00517,252.241667 2101.71517,244.5125 2107.8985,238.9475 C2114.08183,233.3825 2121.9965,230.6 2131.6425,230.6 C2152.91317,230.6 2164.90883,241.111667 2167.6295,262.135 L2167.6295,262.135 Z M2289.5135,379 L2289.5135,276.233 C2289.5135,250.015667 2300.39617,236.907 2322.1615,236.907 C2334.28083,236.907 2345.5345,241.235333 2355.9225,249.892 L2355.9225,249.892 L2362.9715,200.92 C2352.83083,190.284667 2340.3405,184.967 2325.5005,184.967 C2316.84383,184.967 2309.30017,187.316667 2302.8695,192.016 C2296.43883,196.715333 2291.98683,201.538333 2289.5135,206.485 L2289.5135,206.485 L2289.5135,189.419 L2235.7185,189.419 L2235.7185,379 L2289.5135,379 Z M2450.7235,450.974 L2551.6355,189.419 L2496.3565,189.419 L2458.1435,290.702 C2455.42283,298.122 2453.44417,304.058 2452.2075,308.51 C2450.97083,304.058 2448.99217,298.122 2446.2715,290.702 L2446.2715,290.702 L2407.6875,189.419 L2352.0375,189.419 L2423.6405,376.774 L2395.0735,450.974 L2450.7235,450.974 Z" id="ReactQuery" fill="#00435B" fill-rule="nonzero"></path>
        </g>
    </g>
</svg>