<?xml version="1.0" encoding="UTF-8"?>
<svg width="1946px" height="1739px" viewBox="0 0 1946 1739" version="1.1" xmlns="http://www.w3.org/2000/svg" xmlns:xlink="http://www.w3.org/1999/xlink">
    <!-- Generator: Sketch 60.1 (88133) - https://sketch.com -->
    <title>logo-traced</title>
    <desc>Created with Sketch.</desc>
    <g id="Page-1" stroke="none" stroke-width="1" fill="none" fill-rule="evenodd">
        <g id="logo-traced">
            <path d="M1204.41119,1080.89426 L1154.22046,1168.01726 C1151.00728,1173.5947 1145.06039,1177.03185 1138.62359,1177.03185 L801.40478,1177.03185 C794.967984,1177.03185 789.021095,1173.5947 785.807912,1168.01726 L735.616187,1080.89426 L1204.41119,1080.89426 Z M1308.68619,899.894264 L1243.01019,1013.89426 L697.017187,1013.89426 L631.342187,899.894264 L1308.68619,899.894264 Z M1245.42319,722.894264 L1308.79419,832.894264 L631.234187,832.894264 L694.605187,722.894264 L1245.42319,722.894264 Z M1138.62359,555.571264 C1145.06039,555.571264 1151.00728,559.008412 1154.22046,564.585848 L1206.82419,655.894264 L733.204187,655.894264 L785.807912,564.585848 C789.021095,559.008412 794.967984,555.571264 801.40478,555.571264 L1138.62359,555.571264 Z" id="Polygon-2-Copy-4" fill="#00435B"></path>
            <g id="Group-Copy-2" transform="translate(681.014187, 1013.211454)"></g>
            <path d="M411.550535,524.186645 C412.612945,529.328787 414.134534,534.312319 416.092499,539.096655 L418.253669,544.377529 L412.734729,545.826525 C355.223559,560.926064 304.009996,577.747649 258.983315,596.333701 C148.442214,641.962705 73.6102939,698.801096 33.0794811,768.954011 C7.95957591,812.432897 -0.533658436,858.009485 8.5211642,902.833943 C17.0592089,945.100175 40.5978052,984.251429 78.5285212,1020.21916 C140.653298,1079.12885 243.882081,1131.69639 393.595393,1181.21855 C399.493975,1183.16968 405.520335,1184.45257 411.596021,1185.06705 L417.488441,1185.66301 L415.912669,1191.37201 C399.67045,1250.21736 388.280523,1304.26453 381.722857,1353.63874 C365.960898,1472.31422 377.824547,1565.65305 418.432487,1635.90989 C443.580099,1679.41841 478.857759,1709.57103 522.256422,1724.1493 C563.175143,1737.89453 608.905877,1737.09692 659.088198,1722.24698 C741.33847,1697.90751 838.693195,1634.75914 956.687305,1529.80232 C962.506759,1524.62586 967.515214,1518.75199 971.635155,1512.31912 L975.004252,1507.05861 L979.399046,1511.49816 C1021.13029,1553.65431 1061.21435,1589.52303 1099.74257,1619.1784 C1194.6216,1692.20729 1281.35582,1728.63943 1362.47039,1728.63943 C1412.72503,1728.63943 1456.47765,1713.17382 1490.79495,1682.87384 C1523.1457,1654.3102 1545.29891,1614.30513 1557.50211,1563.41393 C1577.49781,1480.02551 1571.43426,1364.14538 1539.47784,1209.47337 C1538.24819,1203.52179 1536.40362,1197.78369 1533.9805,1192.32262 L1531.60476,1186.96832 L1537.26566,1185.46272 C1592.76035,1170.70308 1642.3198,1154.31826 1686.04506,1136.26941 C1796.58616,1090.6404 1871.41808,1033.80201 1911.94889,963.649099 C1937.0688,920.170213 1945.56203,874.593625 1936.50721,829.769166 C1927.96916,787.502934 1904.43057,748.351681 1866.49985,712.383953 C1804.37508,653.474255 1701.14629,600.906718 1551.43298,551.384562 C1546.05025,549.604063 1540.56056,548.379846 1535.02297,547.712342 L1529.27884,547.019942 L1530.7964,541.4368 C1546.14592,484.965688 1556.97637,432.95942 1563.30552,385.305807 C1579.06747,266.630327 1567.20383,173.291489 1526.59589,103.034655 C1501.44827,59.5261301 1466.17061,29.3735157 1422.77195,14.7952408 C1381.85323,1.05001619 1336.1225,1.84762898 1285.94018,16.6975645 C1203.6899,41.0370371 1106.33518,104.185403 988.341068,209.142227 C984.464187,212.590747 980.945495,216.350271 977.807892,220.382242 L974.316615,224.868702 L970.312575,220.833235 C929.054827,179.25167 889.408708,143.825013 851.285804,114.481613 C756.406771,41.4527256 669.672554,5.02058262 588.55798,5.02058262 C538.30334,5.02058262 494.550724,20.4861975 460.233421,50.786177 C427.882674,79.3498135 405.729462,119.354883 393.526266,170.246086 C373.530566,253.634509 379.594109,369.51464 411.550536,524.186648 Z" id="Combined-Shape-Copy" stroke="#002C3C" stroke-width="10" fill="#002B3B" fill-rule="nonzero"></path>
            <path d="M787.877147,471.16242 C878.368748,464.011297 972.10805,461.537814 1069.09494,463.741116 C1070.75137,463.778747 1072.12467,462.466453 1072.1623,460.810025 C1072.17822,460.109356 1071.94832,459.425226 1071.5125,458.876361 C874.028024,210.166111 712.738321,86.0205826 588.55798,86.0205826 C527.338699,86.0205826 488.875458,119.98116 472.293392,189.133646 C455.404755,259.56463 461.549435,365.858332 490.875172,507.797564 C491.204791,509.392944 492.747364,510.433715 494.350126,510.142108 C596.590034,491.540577 694.432084,478.546942 787.877147,471.16242 Z" id="Path-3-Copy-18" stroke="#FF214B" stroke-width="10" fill="#FF4154"></path>
            <path d="M1222.61006,508.631898 C1274.11434,583.449224 1323.19218,663.417317 1369.84427,748.535645 C1370.6406,749.98858 1372.46399,750.520862 1373.91693,749.724531 C1374.53119,749.387864 1375.00827,748.846865 1375.26548,748.195323 C1491.8477,452.87298 1518.64135,251.137275 1456.46735,143.568442 C1425.81511,90.5362246 1377.1342,74.1835636 1308.92444,94.3681751 C1239.45579,114.925312 1150.45224,173.350607 1042.1755,269.663742 C1040.95767,270.747018 1040.82755,272.60447 1041.88247,273.846952 C1109.18514,353.115977 1169.42787,431.377171 1222.61006,508.631898 Z" id="Path-3-Copy-19" stroke="#FF214B" stroke-width="10" fill="#FF4154"></path>
            <path d="M1409.26742,903.412965 C1370.24001,985.229729 1325.54729,1067.52189 1275.19003,1150.28977 C1274.32885,1151.70523 1274.77817,1153.55082 1276.19363,1154.41201 C1276.79298,1154.77665 1277.50116,1154.91972 1278.19506,1154.81633 C1591.86429,1108.08083 1779.76851,1030.51798 1841.81296,923.128099 C1872.39966,870.186996 1862.25946,819.989542 1810.76529,771.160301 C1758.31671,721.426036 1663.35526,673.722521 1525.99533,628.286615 C1524.44957,627.775308 1522.77812,628.590262 1522.22898,630.122989 C1487.22637,727.820014 1449.57301,818.916624 1409.26742,903.412965 Z" id="Path-3-Copy-20" stroke="#FF214B" stroke-width="10" fill="#FF4154"></path>
            <path d="M1194.87715,1607.3361 C1285.36875,1600.18498 1379.10805,1597.7115 1476.09494,1599.9148 C1477.75137,1599.95243 1479.12467,1598.64013 1479.1623,1596.98371 C1479.17822,1596.28304 1478.94832,1595.59891 1478.5125,1595.05004 C1281.02802,1346.33979 1119.73832,1222.19426 995.55798,1222.19426 C934.338699,1222.19426 895.875458,1256.15484 879.293392,1325.30733 C862.404755,1395.73831 868.549435,1502.03201 897.875172,1643.97125 C898.204791,1645.56663 899.747364,1646.6074 901.350126,1646.31579 C1003.59003,1627.71426 1101.43208,1614.72062 1194.87715,1607.3361 Z" id="Path-3-Copy-21" stroke="#FF214B" stroke-width="10" fill="#FF4154" transform="translate(1179.014187, 1434.916848) rotate(-180.000000) translate(-1179.014187, -1434.916848) "></path>
            <path d="M722.418315,1230.31265 C670.914036,1155.49532 621.836193,1075.52723 575.184108,990.408899 C574.387773,988.955964 572.564381,988.423682 571.111448,989.220013 C570.497188,989.55668 570.020101,990.097679 569.762896,990.749221 C453.180677,1286.07156 426.387023,1487.80727 488.561027,1595.3761 C519.213264,1648.40832 567.894169,1664.76098 636.103937,1644.57637 C705.572579,1624.01923 794.576133,1565.59394 902.852872,1469.2808 C904.070708,1468.19753 904.200822,1466.34007 903.145903,1465.09759 C835.843236,1385.82857 775.600502,1307.56737 722.418315,1230.31265 Z" id="Path-3-Copy-22" stroke="#FF214B" stroke-width="10" fill="#FF4154"></path>
            <path d="M535.760955,829.190144 C574.78836,747.373381 619.481087,665.081222 669.838339,582.313336 C670.699525,580.897877 670.250199,579.052291 668.83474,578.191104 C668.235398,577.826455 667.527212,577.683387 666.833316,577.786775 C353.164085,624.522284 165.25986,702.085133 103.215411,809.47501 C72.6287135,862.416114 82.7689148,912.613567 134.263079,961.442808 C186.71166,1011.17707 281.673115,1058.88059 419.033047,1104.31649 C420.578808,1104.8278 422.250251,1104.01285 422.799392,1102.48012 C457.802006,1004.7831 495.455365,913.686485 535.760955,829.190144 Z" id="Path-3-Copy-23" stroke="#FF214B" stroke-width="10" fill="#FF4154"></path>
            <g id="Emblem" transform="translate(615.000000, 558.000000)" fill="#FFD94C">
                <path d="M195.203217,2.84217094e-14 L520.848535,2.84217094e-14 C530.865082,-8.94543716e-15 540.118671,5.35064938 545.115572,14.0317891 L708.01159,297.031789 C712.988874,305.678847 712.988874,316.321153 708.01159,324.968211 L545.115572,607.968211 C540.118671,616.649351 530.865082,622 520.848535,622 L195.203217,622 C185.18667,622 175.933081,616.649351 170.93618,607.968211 L8.04016229,324.968211 C3.06287828,316.321153 3.06287828,305.678847 8.04016229,297.031789 L170.93618,14.0317891 C175.933081,5.35064938 185.18667,1.8400098e-15 195.203217,2.84217094e-14 Z M483.825693,64 C493.847544,64 503.105189,69.3562694 508.100131,78.044655 L634.002965,297.044655 C638.970381,305.68516 638.970381,316.31484 634.002965,324.955345 L508.100131,543.955345 C503.105189,552.643731 493.847544,558 483.825693,558 L232.226059,558 C222.204208,558 212.946563,552.643731 207.951621,543.955345 L82.0487869,324.955345 C77.0813711,316.31484 77.0813711,305.68516 82.0487869,297.044655 L207.951621,78.044655 C212.946563,69.3562694 222.204208,64 232.226059,64 L483.825693,64 Z M443.844951,134 L272.206801,134 C262.195265,134 252.945509,139.345343 247.946762,148.019639 L247.946762,148.019639 L162.082356,297.019639 C157.095741,305.672882 157.095741,316.327118 162.082356,324.980361 L162.082356,324.980361 L247.946762,473.980361 C252.945509,482.654657 262.195265,488 272.206801,488 L272.206801,488 L443.844951,488 C453.856487,488 463.106243,482.654657 468.10499,473.980361 L468.10499,473.980361 L553.969397,324.980361 C558.956011,316.327118 558.956011,305.672882 553.969397,297.019639 L553.969397,297.019639 L468.10499,148.019639 C463.106243,139.345343 453.856487,134 443.844951,134 L443.844951,134 Z M405.358983,201 C415.363001,201 424.607003,206.337385 429.608508,215.00141 L476.944872,297.00141 C481.945505,305.663924 481.945505,316.336076 476.944872,324.99859 L429.608508,406.99859 C424.607003,415.662615 415.363001,421 405.358983,421 L310.692769,421 C300.688751,421 291.444749,415.662615 286.443244,406.99859 L239.10688,324.99859 C234.106247,316.336076 234.106247,305.663924 239.10688,297.00141 L286.443244,215.00141 C291.444749,206.337385 300.688751,201 310.692769,201 L405.358983,201 Z M367.390757,267 L348.660995,267 C338.67401,267 329.443055,272.319377 324.435344,280.960134 L324.435344,280.960134 L315.162616,296.960134 C310.130151,305.643604 310.130151,316.356396 315.162616,325.039866 L315.162616,325.039866 L324.435344,341.039866 C329.443055,349.680623 338.67401,355 348.660995,355 L348.660995,355 L367.390757,355 C377.377742,355 386.608697,349.680623 391.616408,341.039866 L391.616408,341.039866 L400.889136,325.039866 C405.921601,316.356396 405.921601,305.643604 400.889136,296.960134 L400.889136,296.960134 L391.616408,280.960134 C386.608697,272.319377 377.377742,267 367.390757,267 L367.390757,267 Z M-1.27897692e-13,311 L79.453125,311" id="Polygon-2"></path>
            </g>
        </g>
    </g>
</svg>